<svg xmlns="http://www.w3.org/2000/svg" height="512px" viewBox="0 0 512.00019 512" width="512px"><path d="m15.011719 511.925781h481.976562c10.835938 0 18.105469-11.171875 13.710938-21.082031l-134.25-302.605469c2.296875-6.691406-.402344-14.277343-6.78125-17.898437-7.605469-4.320313-14.386719-9.910156-20.152344-16.609375-5.402344-6.28125-14.871094-6.996094-21.152344-1.59375-6.28125 5.398437-6.992187 14.871093-1.59375 21.152343 5.382813 6.253907 11.417969 11.800782 18.003907 16.601563l-42.78125 95.308594c-.839844-1.992188-50.761719-119-92.191407-216.136719-2.355469-5.523438-7.777343-9.109375-13.78125-9.113281-.007812 0-.011719 0-.015625 0-6 0-11.421875 3.574219-13.785156 9.085937l-180.992188 421.976563c-4.234374 9.882812 3.015626 20.914062 13.785157 20.914062zm362.207031-247.980469-16.222656 32.453126-16.414063-32.824219 16.332031-36.378907zm-48.503906 34.972657 18.863281 37.726562c2.539063 5.082031 7.734375 8.289063 13.417969 8.289063 5.679687 0 10.871094-3.207032 13.414062-8.289063l18.578125-37.15625 80.9375 182.4375h-88.023437l-67.890625-159.164062zm-132.75-185.828125 45.664062 107.054687-15.628906 31.253907-16.582031-33.164063c-2.539063-5.082031-7.734375-8.292969-13.414063-8.292969-5.683594 0-10.875 3.210938-13.417968 8.292969l-16.582032 33.164063-15.804687-31.609376zm-61.25 142.808594 17.875 35.75c2.539062 5.078124 7.734375 8.289062 13.414062 8.289062 5.683594 0 10.875-3.210938 13.417969-8.289062l16.582031-33.167969 16.582032 33.167969c2.542968 5.078124 7.734374 8.289062 13.417968 8.289062 5.679688 0 10.871094-3.210938 13.414063-8.289062l17.652343-35.304688 96.21875 225.585938h-315.523437zm0 0" fill="#006DF0"/><path d="m405.992188 149.945312c24.8125 0 44.996093-20.1875 44.996093-44.996093 0-24.8125-20.183593-45-44.996093-45s-44.996094 20.1875-44.996094 45c0 24.808593 20.183594 44.996093 44.996094 44.996093zm0-59.996093c8.269531 0 15 6.726562 15 15 0 8.269531-6.730469 14.996093-15 14.996093-8.269532 0-15-6.726562-15-14.996093 0-8.273438 6.730468-15 15-15zm0 0" fill="#006DF0"/><path d="m325.609375 60.953125c-7.839844-2.671875-16.363281 1.519531-19.035156 9.359375-3.949219 11.59375-5.828125 23.707031-5.546875 36.0625.183594 8.164062 6.859375 14.660156 14.988281 14.660156.113281 0 .226563 0 .34375-.003906 8.28125-.1875 14.84375-7.050781 14.65625-15.332031-.203125-9.082031 1.222656-17.691407 3.953125-25.707031 2.671875-7.84375-1.515625-16.367188-9.359375-19.039063zm0 0" fill="#006DF0"/><path d="m455.988281 10.289062c-7.296875-3.921874-16.390625-1.183593-20.3125 6.113282s-1.183593 16.390625 6.113281 20.3125c7.703126 4.136718 14.605469 9.566406 20.523438 16.140625 5.550781 6.164062 15.035156 6.644531 21.183594 1.109375 6.15625-5.539063 6.652344-15.023438 1.109375-21.179688-8.234375-9.148437-17.863281-16.71875-28.617188-22.496094zm0 0" fill="#006DF0"/><path d="m425.816406 208.039062c11.988282-2.324218 23.4375-6.714843 34.023438-13.046874 7.109375-4.253907 9.421875-13.464844 5.171875-20.574219-4.253907-7.105469-13.464844-9.421875-20.574219-5.167969-7.585938 4.539062-15.773438 7.679688-24.332031 9.339844-8.132813 1.578125-13.445313 9.449218-11.867188 17.578125 1.578125 8.144531 9.453125 13.445312 17.578125 11.871093zm0 0" fill="#006DF0"/><path d="m402.628906 11.804688c-1.765625-8.09375-9.761718-13.222657-17.851562-11.457032-11.925782 2.605469-23.265625 7.257813-33.703125 13.828125-7.011719 4.414063-9.117188 13.671875-4.703125 20.683594 4.398437 6.988281 13.652344 9.128906 20.683594 4.703125 7.488281-4.710938 15.601562-8.046875 24.117187-9.90625 8.097656-1.765625 13.222656-9.757812 11.457031-17.851562zm0 0" fill="#006DF0"/><path d="m486.347656 148.796875c7.789063 2.859375 16.398438-1.152344 19.246094-8.914063 4.628906-12.613281 6.945312-26.34375 6.28125-40.792968-.375-8.273438-7.394531-14.683594-15.664062-14.300782-8.273438.375-14.679688 7.390626-14.300782 15.664063.453125 10.019531-1.058594 19.785156-4.476562 29.09375-2.855469 7.777344 1.136718 16.394531 8.914062 19.25zm0 0" fill="#006DF0"/></svg>
